<svg xmlns="http://www.w3.org/2000/svg" version="1.1" xmlns:xlink="http://www.w3.org/1999/xlink" xmlns:svgjs="http://svgjs.dev/svgjs" width="1440" height="560" preserveAspectRatio="none" viewBox="0 0 1440 560">
    <g mask="url(&quot;#SvgjsMask1000&quot;)" fill="none">
        <rect width="1440" height="560" x="0" y="0" fill="#0e2a47"></rect>
        <path d="M-90.92 346.92L-90.92 346.92" stroke="#132e65" stroke-width="1.5"></path>
        <path d="M-90.92 346.92L43.21 388.28" stroke="#132e65" stroke-width="1.5"></path>
        <path d="M-90.92 346.92L-87.84 499.83" stroke="#132e65" stroke-width="1.5"></path>
        <path d="M-87.84 499.83L-87.84 499.83" stroke="#132e65" stroke-width="1.5"></path>
        <path d="M-87.84 499.83L66.55 562.02" stroke="#132e65" stroke-width="1.5"></path>
        <path d="M-87.84 499.83L43.21 388.28" stroke="#132e65" stroke-width="1.5"></path>
        <path d="M-87.84 499.83L69.99 679.68" stroke="#132e65" stroke-width="1.5"></path>
        <path d="M43.21 388.28L43.21 388.28" stroke="#132e65" stroke-width="1.5"></path>
        <path d="M43.21 388.28L198.81 391.6" stroke="#132e65" stroke-width="1.5"></path>
        <path d="M43.21 388.28L66.55 562.02" stroke="#132e65" stroke-width="1.5"></path>
        <path d="M43.21 388.28L231.44 560.99" stroke="#132e65" stroke-width="1.5"></path>
        <path d="M66.55 562.02L66.55 562.02" stroke="#132e65" stroke-width="1.5"></path>
        <path d="M66.55 562.02L69.99 679.68" stroke="#132e65" stroke-width="1.5"></path>
        <path d="M66.55 562.02L231.44 560.99" stroke="#132e65" stroke-width="1.5"></path>
        <path d="M66.55 562.02L216.43 640.09" stroke="#132e65" stroke-width="1.5"></path>
        <path d="M69.99 679.68L69.99 679.68" stroke="#132e65" stroke-width="1.5"></path>
        <path d="M69.99 679.68L216.43 640.09" stroke="#132e65" stroke-width="1.5"></path>
        <path d="M69.99 679.68L231.44 560.99" stroke="#132e65" stroke-width="1.5"></path>
        <path d="M69.99 679.68L43.21 388.28" stroke="#132e65" stroke-width="1.5"></path>
        <path d="M69.99 679.68L198.81 391.6" stroke="#132e65" stroke-width="1.5"></path>
        <path d="M198.81 391.6L198.81 391.6" stroke="#132e65" stroke-width="1.5"></path>
        <path d="M198.81 391.6L231.44 560.99" stroke="#132e65" stroke-width="1.5"></path>
        <path d="M198.81 391.6L348.77 514.45" stroke="#132e65" stroke-width="1.5"></path>
        <path d="M198.81 391.6L404.13 354.34" stroke="#132e65" stroke-width="1.5"></path>
        <path d="M231.44 560.99L231.44 560.99" stroke="#132e65" stroke-width="1.5"></path>
        <path d="M231.44 560.99L216.43 640.09" stroke="#132e65" stroke-width="1.5"></path>
        <path d="M231.44 560.99L348.77 514.45" stroke="#132e65" stroke-width="1.5"></path>
        <path d="M216.43 640.09L216.43 640.09" stroke="#132e65" stroke-width="1.5"></path>
        <path d="M216.43 640.09L386.76 642.43" stroke="#132e65" stroke-width="1.5"></path>
        <path d="M216.43 640.09L348.77 514.45" stroke="#132e65" stroke-width="1.5"></path>
        <path d="M404.13 354.34L404.13 354.34" stroke="#132e65" stroke-width="1.5"></path>
        <path d="M404.13 354.34L533.4 396.31" stroke="#132e65" stroke-width="1.5"></path>
        <path d="M404.13 354.34L348.77 514.45" stroke="#132e65" stroke-width="1.5"></path>
        <path d="M404.13 354.34L559.71 558.72" stroke="#132e65" stroke-width="1.5"></path>
        <path d="M404.13 354.34L673.3 362.5" stroke="#132e65" stroke-width="1.5"></path>
        <path d="M348.77 514.45L348.77 514.45" stroke="#132e65" stroke-width="1.5"></path>
        <path d="M348.77 514.45L386.76 642.43" stroke="#132e65" stroke-width="1.5"></path>
        <path d="M386.76 642.43L386.76 642.43" stroke="#132e65" stroke-width="1.5"></path>
        <path d="M386.76 642.43L559.98 661.63" stroke="#132e65" stroke-width="1.5"></path>
        <path d="M386.76 642.43L231.44 560.99" stroke="#132e65" stroke-width="1.5"></path>
        <path d="M386.76 642.43L559.71 558.72" stroke="#132e65" stroke-width="1.5"></path>
        <path d="M533.4 396.31L533.4 396.31" stroke="#132e65" stroke-width="1.5"></path>
        <path d="M533.4 396.31L673.3 362.5" stroke="#132e65" stroke-width="1.5"></path>
        <path d="M533.4 396.31L654.99 495.54" stroke="#132e65" stroke-width="1.5"></path>
        <path d="M533.4 396.31L559.71 558.72" stroke="#132e65" stroke-width="1.5"></path>
        <path d="M533.4 396.31L348.77 514.45" stroke="#132e65" stroke-width="1.5"></path>
        <path d="M533.4 396.31L559.98 661.63" stroke="#132e65" stroke-width="1.5"></path>
        <path d="M559.71 558.72L559.71 558.72" stroke="#132e65" stroke-width="1.5"></path>
        <path d="M559.71 558.72L559.98 661.63" stroke="#132e65" stroke-width="1.5"></path>
        <path d="M559.71 558.72L654.99 495.54" stroke="#132e65" stroke-width="1.5"></path>
        <path d="M559.98 661.63L559.98 661.63" stroke="#132e65" stroke-width="1.5"></path>
        <path d="M559.98 661.63L711.01 695.09" stroke="#132e65" stroke-width="1.5"></path>
        <path d="M673.3 362.5L673.3 362.5" stroke="#132e65" stroke-width="1.5"></path>
        <path d="M673.3 362.5L654.99 495.54" stroke="#132e65" stroke-width="1.5"></path>
        <path d="M673.3 362.5L854.9 371.92" stroke="#132e65" stroke-width="1.5"></path>
        <path d="M673.3 362.5L794.55 521.67" stroke="#132e65" stroke-width="1.5"></path>
        <path d="M673.3 362.5L559.71 558.72" stroke="#132e65" stroke-width="1.5"></path>
        <path d="M654.99 495.54L654.99 495.54" stroke="#132e65" stroke-width="1.5"></path>
        <path d="M654.99 495.54L794.55 521.67" stroke="#132e65" stroke-width="1.5"></path>
        <path d="M654.99 495.54L559.98 661.63" stroke="#132e65" stroke-width="1.5"></path>
        <path d="M654.99 495.54L711.01 695.09" stroke="#132e65" stroke-width="1.5"></path>
        <path d="M711.01 695.09L711.01 695.09" stroke="#132e65" stroke-width="1.5"></path>
        <path d="M711.01 695.09L820.03 699.16" stroke="#132e65" stroke-width="1.5"></path>
        <path d="M711.01 695.09L794.55 521.67" stroke="#132e65" stroke-width="1.5"></path>
        <path d="M854.9 371.92L854.9 371.92" stroke="#132e65" stroke-width="1.5"></path>
        <path d="M854.9 371.92L1012.38 398.98" stroke="#132e65" stroke-width="1.5"></path>
        <path d="M854.9 371.92L952.98 499.47" stroke="#132e65" stroke-width="1.5"></path>
        <path d="M854.9 371.92L794.55 521.67" stroke="#132e65" stroke-width="1.5"></path>
        <path d="M854.9 371.92L955.95 192.24" stroke="#132e65" stroke-width="1.5"></path>
        <path d="M854.9 371.92L654.99 495.54" stroke="#132e65" stroke-width="1.5"></path>
        <path d="M794.55 521.67L794.55 521.67" stroke="#132e65" stroke-width="1.5"></path>
        <path d="M794.55 521.67L952.98 499.47" stroke="#132e65" stroke-width="1.5"></path>
        <path d="M794.55 521.67L820.03 699.16" stroke="#132e65" stroke-width="1.5"></path>
        <path d="M820.03 699.16L820.03 699.16" stroke="#132e65" stroke-width="1.5"></path>
        <path d="M820.03 699.16L966.67 707.29" stroke="#132e65" stroke-width="1.5"></path>
        <path d="M820.03 699.16L952.98 499.47" stroke="#132e65" stroke-width="1.5"></path>
        <path d="M820.03 699.16L654.99 495.54" stroke="#132e65" stroke-width="1.5"></path>
        <path d="M820.03 699.16L559.98 661.63" stroke="#132e65" stroke-width="1.5"></path>
        <path d="M1003.3 -59.84L1003.3 -59.84" stroke="#132e65" stroke-width="1.5"></path>
        <path d="M1003.3 -59.84L1116.19 -62.7" stroke="#132e65" stroke-width="1.5"></path>
        <path d="M1003.3 -59.84L966.76 69.16" stroke="#132e65" stroke-width="1.5"></path>
        <path d="M1003.3 -59.84L1139.61 59.09" stroke="#132e65" stroke-width="1.5"></path>
        <path d="M1003.3 -59.84L955.95 192.24" stroke="#132e65" stroke-width="1.5"></path>
        <path d="M1003.3 -59.84L1262.37 -98.76" stroke="#132e65" stroke-width="1.5"></path>
        <path d="M1003.3 -59.84L1302.45 43.12" stroke="#132e65" stroke-width="1.5"></path>
        <path d="M966.76 69.16L966.76 69.16" stroke="#132e65" stroke-width="1.5"></path>
        <path d="M966.76 69.16L955.95 192.24" stroke="#132e65" stroke-width="1.5"></path>
        <path d="M966.76 69.16L1139.61 59.09" stroke="#132e65" stroke-width="1.5"></path>
        <path d="M966.76 69.16L1116.19 -62.7" stroke="#132e65" stroke-width="1.5"></path>
        <path d="M966.76 69.16L1118.64 240.15" stroke="#132e65" stroke-width="1.5"></path>
        <path d="M955.95 192.24L955.95 192.24" stroke="#132e65" stroke-width="1.5"></path>
        <path d="M955.95 192.24L1118.64 240.15" stroke="#132e65" stroke-width="1.5"></path>
        <path d="M1012.38 398.98L1012.38 398.98" stroke="#132e65" stroke-width="1.5"></path>
        <path d="M1012.38 398.98L1103.36 375" stroke="#132e65" stroke-width="1.5"></path>
        <path d="M1012.38 398.98L952.98 499.47" stroke="#132e65" stroke-width="1.5"></path>
        <path d="M1012.38 398.98L1097.06 487.77" stroke="#132e65" stroke-width="1.5"></path>
        <path d="M952.98 499.47L952.98 499.47" stroke="#132e65" stroke-width="1.5"></path>
        <path d="M952.98 499.47L1097.06 487.77" stroke="#132e65" stroke-width="1.5"></path>
        <path d="M966.67 707.29L966.67 707.29" stroke="#132e65" stroke-width="1.5"></path>
        <path d="M966.67 707.29L952.98 499.47" stroke="#132e65" stroke-width="1.5"></path>
        <path d="M966.67 707.29L794.55 521.67" stroke="#132e65" stroke-width="1.5"></path>
        <path d="M1116.19 -62.7L1116.19 -62.7" stroke="#132e65" stroke-width="1.5"></path>
        <path d="M1116.19 -62.7L1139.61 59.09" stroke="#132e65" stroke-width="1.5"></path>
        <path d="M1116.19 -62.7L1262.37 -98.76" stroke="#132e65" stroke-width="1.5"></path>
        <path d="M1139.61 59.09L1139.61 59.09" stroke="#132e65" stroke-width="1.5"></path>
        <path d="M1139.61 59.09L1302.45 43.12" stroke="#132e65" stroke-width="1.5"></path>
        <path d="M1118.64 240.15L1118.64 240.15" stroke="#132e65" stroke-width="1.5"></path>
        <path d="M1118.64 240.15L1103.36 375" stroke="#132e65" stroke-width="1.5"></path>
        <path d="M1118.64 240.15L1139.61 59.09" stroke="#132e65" stroke-width="1.5"></path>
        <path d="M1118.64 240.15L1264.85 357.93" stroke="#132e65" stroke-width="1.5"></path>
        <path d="M1118.64 240.15L1012.38 398.98" stroke="#132e65" stroke-width="1.5"></path>
        <path d="M1103.36 375L1103.36 375" stroke="#132e65" stroke-width="1.5"></path>
        <path d="M1103.36 375L1097.06 487.77" stroke="#132e65" stroke-width="1.5"></path>
        <path d="M1103.36 375L1264.85 357.93" stroke="#132e65" stroke-width="1.5"></path>
        <path d="M1103.36 375L952.98 499.47" stroke="#132e65" stroke-width="1.5"></path>
        <path d="M1097.06 487.77L1097.06 487.77" stroke="#132e65" stroke-width="1.5"></path>
        <path d="M1097.06 487.77L1282.56 499.24" stroke="#132e65" stroke-width="1.5"></path>
        <path d="M1097.06 487.77L1264.85 357.93" stroke="#132e65" stroke-width="1.5"></path>
        <path d="M1262.37 -98.76L1262.37 -98.76" stroke="#132e65" stroke-width="1.5"></path>
        <path d="M1262.37 -98.76L1302.45 43.12" stroke="#132e65" stroke-width="1.5"></path>
        <path d="M1262.37 -98.76L1438.38 -49.68" stroke="#132e65" stroke-width="1.5"></path>
        <path d="M1262.37 -98.76L1139.61 59.09" stroke="#132e65" stroke-width="1.5"></path>
        <path d="M1302.45 43.12L1302.45 43.12" stroke="#132e65" stroke-width="1.5"></path>
        <path d="M1302.45 43.12L1396.88 75.17" stroke="#132e65" stroke-width="1.5"></path>
        <path d="M1302.45 43.12L1438.38 -49.68" stroke="#132e65" stroke-width="1.5"></path>
        <path d="M1302.45 43.12L1116.19 -62.7" stroke="#132e65" stroke-width="1.5"></path>
        <path d="M1302.45 43.12L1422.18 243.75" stroke="#132e65" stroke-width="1.5"></path>
        <path d="M1264.85 357.93L1264.85 357.93" stroke="#132e65" stroke-width="1.5"></path>
        <path d="M1264.85 357.93L1282.56 499.24" stroke="#132e65" stroke-width="1.5"></path>
        <path d="M1264.85 357.93L1411.15 338.5" stroke="#132e65" stroke-width="1.5"></path>
        <path d="M1264.85 357.93L1422.18 243.75" stroke="#132e65" stroke-width="1.5"></path>
        <path d="M1282.56 499.24L1282.56 499.24" stroke="#132e65" stroke-width="1.5"></path>
        <path d="M1282.56 499.24L1452.62 515.14" stroke="#132e65" stroke-width="1.5"></path>
        <path d="M1282.56 499.24L1411.15 338.5" stroke="#132e65" stroke-width="1.5"></path>
        <path d="M1282.56 499.24L1257.73 707.6" stroke="#132e65" stroke-width="1.5"></path>
        <path d="M1282.56 499.24L1103.36 375" stroke="#132e65" stroke-width="1.5"></path>
        <path d="M1257.73 707.6L1257.73 707.6" stroke="#132e65" stroke-width="1.5"></path>
        <path d="M1257.73 707.6L1457.25 654.78" stroke="#132e65" stroke-width="1.5"></path>
        <path d="M1438.38 -49.68L1438.38 -49.68" stroke="#132e65" stroke-width="1.5"></path>
        <path d="M1438.38 -49.68L1396.88 75.17" stroke="#132e65" stroke-width="1.5"></path>
        <path d="M1438.38 -49.68L1591.4 -60.72" stroke="#132e65" stroke-width="1.5"></path>
        <path d="M1438.38 -49.68L1557.75 52.18" stroke="#132e65" stroke-width="1.5"></path>
        <path d="M1396.88 75.17L1396.88 75.17" stroke="#132e65" stroke-width="1.5"></path>
        <path d="M1396.88 75.17L1557.75 52.18" stroke="#132e65" stroke-width="1.5"></path>
        <path d="M1396.88 75.17L1422.18 243.75" stroke="#132e65" stroke-width="1.5"></path>
        <path d="M1396.88 75.17L1262.37 -98.76" stroke="#132e65" stroke-width="1.5"></path>
        <path d="M1396.88 75.17L1591.4 -60.72" stroke="#132e65" stroke-width="1.5"></path>
        <path d="M1422.18 243.75L1422.18 243.75" stroke="#132e65" stroke-width="1.5"></path>
        <path d="M1422.18 243.75L1411.15 338.5" stroke="#132e65" stroke-width="1.5"></path>
        <path d="M1422.18 243.75L1579.43 257.63" stroke="#132e65" stroke-width="1.5"></path>
        <path d="M1411.15 338.5L1411.15 338.5" stroke="#132e65" stroke-width="1.5"></path>
        <path d="M1411.15 338.5L1452.62 515.14" stroke="#132e65" stroke-width="1.5"></path>
        <path d="M1411.15 338.5L1579.43 257.63" stroke="#132e65" stroke-width="1.5"></path>
        <path d="M1452.62 515.14L1452.62 515.14" stroke="#132e65" stroke-width="1.5"></path>
        <path d="M1452.62 515.14L1582.76 516.37" stroke="#132e65" stroke-width="1.5"></path>
        <path d="M1452.62 515.14L1457.25 654.78" stroke="#132e65" stroke-width="1.5"></path>
        <path d="M1457.25 654.78L1457.25 654.78" stroke="#132e65" stroke-width="1.5"></path>
        <path d="M1457.25 654.78L1595.77 673.9" stroke="#132e65" stroke-width="1.5"></path>
        <path d="M1457.25 654.78L1582.76 516.37" stroke="#132e65" stroke-width="1.5"></path>
        <path d="M1591.4 -60.72L1591.4 -60.72" stroke="#132e65" stroke-width="1.5"></path>
        <path d="M1591.4 -60.72L1557.75 52.18" stroke="#132e65" stroke-width="1.5"></path>
        <path d="M1557.75 52.18L1557.75 52.18" stroke="#132e65" stroke-width="1.5"></path>
        <path d="M1579.43 257.63L1579.43 257.63" stroke="#132e65" stroke-width="1.5"></path>
        <path d="M1579.43 257.63L1600 394.75" stroke="#132e65" stroke-width="1.5"></path>
        <path d="M1600 394.75L1600 394.75" stroke="#132e65" stroke-width="1.5"></path>
        <path d="M1600 394.75L1582.76 516.37" stroke="#132e65" stroke-width="1.5"></path>
        <path d="M1582.76 516.37L1582.76 516.37" stroke="#132e65" stroke-width="1.5"></path>
        <path d="M1582.76 516.37L1595.77 673.9" stroke="#132e65" stroke-width="1.5"></path>
        <path d="M1582.76 516.37L1411.15 338.5" stroke="#132e65" stroke-width="1.5"></path>
        <path d="M1595.77 673.9L1595.77 673.9" stroke="#132e65" stroke-width="1.5"></path>
        <path d="M1595.77 673.9L1452.62 515.14" stroke="#132e65" stroke-width="1.5"></path>
        <path d="M1595.77 673.9L1600 394.75" stroke="#132e65" stroke-width="1.5"></path>
        <path d="M1595.77 673.9L1257.73 707.6" stroke="#132e65" stroke-width="1.5"></path>
        <path d="M1595.77 673.9L1282.56 499.24" stroke="#132e65" stroke-width="1.5"></path>
        <circle r="5" cx="-90.92" cy="346.92" fill="#132e65"></circle>
        <circle r="5" cx="-87.84" cy="499.83" fill="#132e65"></circle>
        <circle r="5" cx="43.21" cy="388.28" fill="#132e65"></circle>
        <circle r="5" cx="66.55" cy="562.02" fill="#132e65"></circle>
        <circle r="5" cx="69.99" cy="679.68" fill="#132e65"></circle>
        <circle r="5" cx="198.81" cy="391.6" fill="#132e65"></circle>
        <circle r="5" cx="231.44" cy="560.99" fill="#132e65"></circle>
        <circle r="5" cx="216.43" cy="640.09" fill="#132e65"></circle>
        <circle r="5" cx="404.13" cy="354.34" fill="#132e65"></circle>
        <circle r="5" cx="348.77" cy="514.45" fill="#132e65"></circle>
        <circle r="5" cx="386.76" cy="642.43" fill="#132e65"></circle>
        <circle r="5" cx="533.4" cy="396.31" fill="#132e65"></circle>
        <circle r="5" cx="559.71" cy="558.72" fill="#132e65"></circle>
        <circle r="5" cx="559.98" cy="661.63" fill="#132e65"></circle>
        <circle r="5" cx="673.3" cy="362.5" fill="#132e65"></circle>
        <circle r="5" cx="654.99" cy="495.54" fill="#132e65"></circle>
        <circle r="5" cx="711.01" cy="695.09" fill="#132e65"></circle>
        <circle r="5" cx="854.9" cy="371.92" fill="#132e65"></circle>
        <circle r="5" cx="794.55" cy="521.67" fill="#132e65"></circle>
        <circle r="5" cx="820.03" cy="699.16" fill="#132e65"></circle>
        <circle r="5" cx="1003.3" cy="-59.84" fill="#132e65"></circle>
        <circle r="5" cx="966.76" cy="69.16" fill="#132e65"></circle>
        <circle r="5" cx="955.95" cy="192.24" fill="#132e65"></circle>
        <circle r="5" cx="1012.38" cy="398.98" fill="#132e65"></circle>
        <circle r="5" cx="952.98" cy="499.47" fill="#132e65"></circle>
        <circle r="5" cx="966.67" cy="707.29" fill="#132e65"></circle>
        <circle r="5" cx="1116.19" cy="-62.7" fill="#132e65"></circle>
        <circle r="5" cx="1139.61" cy="59.09" fill="#132e65"></circle>
        <circle r="5" cx="1118.64" cy="240.15" fill="#132e65"></circle>
        <circle r="5" cx="1103.36" cy="375" fill="#132e65"></circle>
        <circle r="5" cx="1097.06" cy="487.77" fill="#132e65"></circle>
        <circle r="5" cx="1262.37" cy="-98.76" fill="#132e65"></circle>
        <circle r="5" cx="1302.45" cy="43.12" fill="#132e65"></circle>
        <circle r="5" cx="1264.85" cy="357.93" fill="#132e65"></circle>
        <circle r="5" cx="1282.56" cy="499.24" fill="#132e65"></circle>
        <circle r="5" cx="1257.73" cy="707.6" fill="#132e65"></circle>
        <circle r="5" cx="1438.38" cy="-49.68" fill="#132e65"></circle>
        <circle r="5" cx="1396.88" cy="75.17" fill="#132e65"></circle>
        <circle r="5" cx="1422.18" cy="243.75" fill="#132e65"></circle>
        <circle r="5" cx="1411.15" cy="338.5" fill="#132e65"></circle>
        <circle r="5" cx="1452.62" cy="515.14" fill="#132e65"></circle>
        <circle r="5" cx="1457.25" cy="654.78" fill="#132e65"></circle>
        <circle r="5" cx="1591.4" cy="-60.72" fill="#132e65"></circle>
        <circle r="5" cx="1557.75" cy="52.18" fill="#132e65"></circle>
        <circle r="5" cx="1579.43" cy="257.63" fill="#132e65"></circle>
        <circle r="5" cx="1600" cy="394.75" fill="#132e65"></circle>
        <circle r="5" cx="1582.76" cy="516.37" fill="#132e65"></circle>
        <circle r="5" cx="1595.77" cy="673.9" fill="#132e65"></circle>
        <path d="M-107.41 658.02L-107.41 658.02" stroke="hsl(228.5, 77.2%, 51.5%)" stroke-width="1.5"></path>
        <path d="M-107.41 658.02L-80.85 494.75" stroke="hsl(228.5, 77.2%, 51.5%)" stroke-width="1.5"></path>
        <path d="M-107.41 658.02L52.52 705.12" stroke="hsl(228.5, 77.2%, 51.5%)" stroke-width="1.5"></path>
        <path d="M-107.41 658.02L41.49 495.61" stroke="hsl(228.5, 77.2%, 51.5%)" stroke-width="1.5"></path>
        <path d="M237.48 493.95L237.48 493.95" stroke="hsl(228.5, 77.2%, 51.5%)" stroke-width="1.5"></path>
        <path d="M237.48 493.95L343.23 491.16" stroke="hsl(228.5, 77.2%, 51.5%)" stroke-width="1.5"></path>
        <path d="M237.48 493.95L240.17 663.28" stroke="hsl(228.5, 77.2%, 51.5%)" stroke-width="1.5"></path>
        <path d="M237.48 493.95L41.49 495.61" stroke="hsl(228.5, 77.2%, 51.5%)" stroke-width="1.5"></path>
        <path d="M546.7 507.46L546.7 507.46" stroke="hsl(228.5, 77.2%, 51.5%)" stroke-width="1.5"></path>
        <path d="M546.7 507.46L683.43 492.21" stroke="hsl(228.5, 77.2%, 51.5%)" stroke-width="1.5"></path>
        <path d="M546.7 507.46L500.94 650.02" stroke="hsl(228.5, 77.2%, 51.5%)" stroke-width="1.5"></path>
        <path d="M546.7 507.46L343.23 491.16" stroke="hsl(228.5, 77.2%, 51.5%)" stroke-width="1.5"></path>
        <path d="M683.43 492.21L683.43 492.21" stroke="hsl(228.5, 77.2%, 51.5%)" stroke-width="1.5"></path>
        <path d="M683.43 492.21L799.45 533.27" stroke="hsl(228.5, 77.2%, 51.5%)" stroke-width="1.5"></path>
        <path d="M683.43 492.21L652.49 697.97" stroke="hsl(228.5, 77.2%, 51.5%)" stroke-width="1.5"></path>
        <path d="M683.43 492.21L860.64 377.37" stroke="hsl(228.5, 77.2%, 51.5%)" stroke-width="1.5"></path>
        <path d="M1148.17 55.87L1148.17 55.87" stroke="hsl(228.5, 77.2%, 51.5%)" stroke-width="1.5"></path>
        <path d="M1148.17 55.87L1260.72 41.5" stroke="hsl(228.5, 77.2%, 51.5%)" stroke-width="1.5"></path>
        <path d="M1148.17 55.87L1130.22 236.88" stroke="hsl(228.5, 77.2%, 51.5%)" stroke-width="1.5"></path>
        <path d="M1148.17 55.87L1275.9 -83.61" stroke="hsl(228.5, 77.2%, 51.5%)" stroke-width="1.5"></path>
        <path d="M1148.17 55.87L1303.01 188.88" stroke="hsl(228.5, 77.2%, 51.5%)" stroke-width="1.5"></path>
        <path d="M1148.17 55.87L1000.59 259.89" stroke="hsl(228.5, 77.2%, 51.5%)" stroke-width="1.5"></path>
        <path d="M1131.13 490.22L1131.13 490.22" stroke="hsl(228.5, 77.2%, 51.5%)" stroke-width="1.5"></path>
        <path d="M1131.13 490.22L1099.77 379.73" stroke="hsl(228.5, 77.2%, 51.5%)" stroke-width="1.5"></path>
        <path d="M1131.13 490.22L1133.13 649.6" stroke="hsl(228.5, 77.2%, 51.5%)" stroke-width="1.5"></path>
        <path d="M1131.13 490.22L1298.14 510.9" stroke="hsl(228.5, 77.2%, 51.5%)" stroke-width="1.5"></path>
        <path d="M1131.13 490.22L970 351.27" stroke="hsl(228.5, 77.2%, 51.5%)" stroke-width="1.5"></path>
        <path d="M1260.72 41.5L1260.72 41.5" stroke="hsl(228.5, 77.2%, 51.5%)" stroke-width="1.5"></path>
        <path d="M1260.72 41.5L1275.9 -83.61" stroke="hsl(228.5, 77.2%, 51.5%)" stroke-width="1.5"></path>
        <path d="M1611.51 347.55L1611.51 347.55" stroke="hsl(228.5, 77.2%, 51.5%)" stroke-width="1.5"></path>
        <path d="M1611.51 347.55L1605.62 194.94" stroke="hsl(228.5, 77.2%, 51.5%)" stroke-width="1.5"></path>
        <path d="M1611.51 347.55L1412.39 390.58" stroke="hsl(228.5, 77.2%, 51.5%)" stroke-width="1.5"></path>
        <path d="M1611.51 347.55L1409.09 234.2" stroke="hsl(228.5, 77.2%, 51.5%)" stroke-width="1.5"></path>
        <path d="M1611.51 347.55L1583.64 100.24" stroke="hsl(228.5, 77.2%, 51.5%)" stroke-width="1.5"></path>
        <path d="M-80.85 494.75L-80.85 494.75" stroke="hsl(228.5, 77.2%, 51.5%)" stroke-width="1.5"></path>
        <path d="M-80.85 494.75L41.49 495.61" stroke="hsl(228.5, 77.2%, 51.5%)" stroke-width="1.5"></path>
        <path d="M-80.85 494.75L52.52 705.12" stroke="hsl(228.5, 77.2%, 51.5%)" stroke-width="1.5"></path>
        <path d="M-80.85 494.75L237.48 493.95" stroke="hsl(228.5, 77.2%, 51.5%)" stroke-width="1.5"></path>
        <path d="M-80.85 494.75L240.17 663.28" stroke="hsl(228.5, 77.2%, 51.5%)" stroke-width="1.5"></path>
        <path d="M-80.85 494.75L343.23 491.16" stroke="hsl(228.5, 77.2%, 51.5%)" stroke-width="1.5"></path>
        <path d="M41.49 495.61L41.49 495.61" stroke="hsl(228.5, 77.2%, 51.5%)" stroke-width="1.5"></path>
        <path d="M41.49 495.61L52.52 705.12" stroke="hsl(228.5, 77.2%, 51.5%)" stroke-width="1.5"></path>
        <path d="M52.52 705.12L52.52 705.12" stroke="hsl(228.5, 77.2%, 51.5%)" stroke-width="1.5"></path>
        <path d="M52.52 705.12L240.17 663.28" stroke="hsl(228.5, 77.2%, 51.5%)" stroke-width="1.5"></path>
        <path d="M52.52 705.12L237.48 493.95" stroke="hsl(228.5, 77.2%, 51.5%)" stroke-width="1.5"></path>
        <path d="M240.17 663.28L240.17 663.28" stroke="hsl(228.5, 77.2%, 51.5%)" stroke-width="1.5"></path>
        <path d="M240.17 663.28L358.83 706.17" stroke="hsl(228.5, 77.2%, 51.5%)" stroke-width="1.5"></path>
        <path d="M240.17 663.28L343.23 491.16" stroke="hsl(228.5, 77.2%, 51.5%)" stroke-width="1.5"></path>
        <path d="M240.17 663.28L41.49 495.61" stroke="hsl(228.5, 77.2%, 51.5%)" stroke-width="1.5"></path>
        <path d="M240.17 663.28L500.94 650.02" stroke="hsl(228.5, 77.2%, 51.5%)" stroke-width="1.5"></path>
        <path d="M343.23 491.16L343.23 491.16" stroke="hsl(228.5, 77.2%, 51.5%)" stroke-width="1.5"></path>
        <path d="M358.83 706.17L358.83 706.17" stroke="hsl(228.5, 77.2%, 51.5%)" stroke-width="1.5"></path>
        <path d="M358.83 706.17L500.94 650.02" stroke="hsl(228.5, 77.2%, 51.5%)" stroke-width="1.5"></path>
        <path d="M500.94 650.02L500.94 650.02" stroke="hsl(228.5, 77.2%, 51.5%)" stroke-width="1.5"></path>
        <path d="M652.49 697.97L652.49 697.97" stroke="hsl(228.5, 77.2%, 51.5%)" stroke-width="1.5"></path>
        <path d="M652.49 697.97L802.2 671.12" stroke="hsl(228.5, 77.2%, 51.5%)" stroke-width="1.5"></path>
        <path d="M652.49 697.97L500.94 650.02" stroke="hsl(228.5, 77.2%, 51.5%)" stroke-width="1.5"></path>
        <path d="M652.49 697.97L546.7 507.46" stroke="hsl(228.5, 77.2%, 51.5%)" stroke-width="1.5"></path>
        <path d="M652.49 697.97L799.45 533.27" stroke="hsl(228.5, 77.2%, 51.5%)" stroke-width="1.5"></path>
        <path d="M652.49 697.97L358.83 706.17" stroke="hsl(228.5, 77.2%, 51.5%)" stroke-width="1.5"></path>
        <path d="M860.64 377.37L860.64 377.37" stroke="hsl(228.5, 77.2%, 51.5%)" stroke-width="1.5"></path>
        <path d="M860.64 377.37L970 351.27" stroke="hsl(228.5, 77.2%, 51.5%)" stroke-width="1.5"></path>
        <path d="M860.64 377.37L799.45 533.27" stroke="hsl(228.5, 77.2%, 51.5%)" stroke-width="1.5"></path>
        <path d="M860.64 377.37L1000.59 259.89" stroke="hsl(228.5, 77.2%, 51.5%)" stroke-width="1.5"></path>
        <path d="M860.64 377.37L1099.77 379.73" stroke="hsl(228.5, 77.2%, 51.5%)" stroke-width="1.5"></path>
        <path d="M799.45 533.27L799.45 533.27" stroke="hsl(228.5, 77.2%, 51.5%)" stroke-width="1.5"></path>
        <path d="M799.45 533.27L802.2 671.12" stroke="hsl(228.5, 77.2%, 51.5%)" stroke-width="1.5"></path>
        <path d="M799.45 533.27L970 351.27" stroke="hsl(228.5, 77.2%, 51.5%)" stroke-width="1.5"></path>
        <path d="M799.45 533.27L1004.51 678.3" stroke="hsl(228.5, 77.2%, 51.5%)" stroke-width="1.5"></path>
        <path d="M802.2 671.12L802.2 671.12" stroke="hsl(228.5, 77.2%, 51.5%)" stroke-width="1.5"></path>
        <path d="M802.2 671.12L1004.51 678.3" stroke="hsl(228.5, 77.2%, 51.5%)" stroke-width="1.5"></path>
        <path d="M802.2 671.12L683.43 492.21" stroke="hsl(228.5, 77.2%, 51.5%)" stroke-width="1.5"></path>
        <path d="M1000.59 259.89L1000.59 259.89" stroke="hsl(228.5, 77.2%, 51.5%)" stroke-width="1.5"></path>
        <path d="M1000.59 259.89L970 351.27" stroke="hsl(228.5, 77.2%, 51.5%)" stroke-width="1.5"></path>
        <path d="M1000.59 259.89L1130.22 236.88" stroke="hsl(228.5, 77.2%, 51.5%)" stroke-width="1.5"></path>
        <path d="M1000.59 259.89L1099.77 379.73" stroke="hsl(228.5, 77.2%, 51.5%)" stroke-width="1.5"></path>
        <path d="M970 351.27L970 351.27" stroke="hsl(228.5, 77.2%, 51.5%)" stroke-width="1.5"></path>
        <path d="M970 351.27L1099.77 379.73" stroke="hsl(228.5, 77.2%, 51.5%)" stroke-width="1.5"></path>
        <path d="M970 351.27L1130.22 236.88" stroke="hsl(228.5, 77.2%, 51.5%)" stroke-width="1.5"></path>
        <path d="M1004.51 678.3L1004.51 678.3" stroke="hsl(228.5, 77.2%, 51.5%)" stroke-width="1.5"></path>
        <path d="M1004.51 678.3L1133.13 649.6" stroke="hsl(228.5, 77.2%, 51.5%)" stroke-width="1.5"></path>
        <path d="M1004.51 678.3L1131.13 490.22" stroke="hsl(228.5, 77.2%, 51.5%)" stroke-width="1.5"></path>
        <path d="M1130.22 236.88L1130.22 236.88" stroke="hsl(228.5, 77.2%, 51.5%)" stroke-width="1.5"></path>
        <path d="M1130.22 236.88L1099.77 379.73" stroke="hsl(228.5, 77.2%, 51.5%)" stroke-width="1.5"></path>
        <path d="M1130.22 236.88L1303.01 188.88" stroke="hsl(228.5, 77.2%, 51.5%)" stroke-width="1.5"></path>
        <path d="M1130.22 236.88L1300.76 341.01" stroke="hsl(228.5, 77.2%, 51.5%)" stroke-width="1.5"></path>
        <path d="M1099.77 379.73L1099.77 379.73" stroke="hsl(228.5, 77.2%, 51.5%)" stroke-width="1.5"></path>
        <path d="M1133.13 649.6L1133.13 649.6" stroke="hsl(228.5, 77.2%, 51.5%)" stroke-width="1.5"></path>
        <path d="M1133.13 649.6L1298.14 510.9" stroke="hsl(228.5, 77.2%, 51.5%)" stroke-width="1.5"></path>
        <path d="M1133.13 649.6L1099.77 379.73" stroke="hsl(228.5, 77.2%, 51.5%)" stroke-width="1.5"></path>
        <path d="M1275.9 -83.61L1275.9 -83.61" stroke="hsl(228.5, 77.2%, 51.5%)" stroke-width="1.5"></path>
        <path d="M1303.01 188.88L1303.01 188.88" stroke="hsl(228.5, 77.2%, 51.5%)" stroke-width="1.5"></path>
        <path d="M1303.01 188.88L1409.09 234.2" stroke="hsl(228.5, 77.2%, 51.5%)" stroke-width="1.5"></path>
        <path d="M1303.01 188.88L1300.76 341.01" stroke="hsl(228.5, 77.2%, 51.5%)" stroke-width="1.5"></path>
        <path d="M1303.01 188.88L1260.72 41.5" stroke="hsl(228.5, 77.2%, 51.5%)" stroke-width="1.5"></path>
        <path d="M1300.76 341.01L1300.76 341.01" stroke="hsl(228.5, 77.2%, 51.5%)" stroke-width="1.5"></path>
        <path d="M1300.76 341.01L1412.39 390.58" stroke="hsl(228.5, 77.2%, 51.5%)" stroke-width="1.5"></path>
        <path d="M1300.76 341.01L1409.09 234.2" stroke="hsl(228.5, 77.2%, 51.5%)" stroke-width="1.5"></path>
        <path d="M1300.76 341.01L1298.14 510.9" stroke="hsl(228.5, 77.2%, 51.5%)" stroke-width="1.5"></path>
        <path d="M1298.14 510.9L1298.14 510.9" stroke="hsl(228.5, 77.2%, 51.5%)" stroke-width="1.5"></path>
        <path d="M1298.14 510.9L1399.18 558.41" stroke="hsl(228.5, 77.2%, 51.5%)" stroke-width="1.5"></path>
        <path d="M1298.14 510.9L1412.39 390.58" stroke="hsl(228.5, 77.2%, 51.5%)" stroke-width="1.5"></path>
        <path d="M1448.8 68.38L1448.8 68.38" stroke="hsl(228.5, 77.2%, 51.5%)" stroke-width="1.5"></path>
        <path d="M1448.8 68.38L1583.64 100.24" stroke="hsl(228.5, 77.2%, 51.5%)" stroke-width="1.5"></path>
        <path d="M1448.8 68.38L1409.09 234.2" stroke="hsl(228.5, 77.2%, 51.5%)" stroke-width="1.5"></path>
        <path d="M1448.8 68.38L1561.74 -59.75" stroke="hsl(228.5, 77.2%, 51.5%)" stroke-width="1.5"></path>
        <path d="M1448.8 68.38L1303.01 188.88" stroke="hsl(228.5, 77.2%, 51.5%)" stroke-width="1.5"></path>
        <path d="M1448.8 68.38L1260.72 41.5" stroke="hsl(228.5, 77.2%, 51.5%)" stroke-width="1.5"></path>
        <path d="M1409.09 234.2L1409.09 234.2" stroke="hsl(228.5, 77.2%, 51.5%)" stroke-width="1.5"></path>
        <path d="M1412.39 390.58L1412.39 390.58" stroke="hsl(228.5, 77.2%, 51.5%)" stroke-width="1.5"></path>
        <path d="M1412.39 390.58L1409.09 234.2" stroke="hsl(228.5, 77.2%, 51.5%)" stroke-width="1.5"></path>
        <path d="M1399.18 558.41L1399.18 558.41" stroke="hsl(228.5, 77.2%, 51.5%)" stroke-width="1.5"></path>
        <path d="M1399.18 558.41L1428.87 700.09" stroke="hsl(228.5, 77.2%, 51.5%)" stroke-width="1.5"></path>
        <path d="M1399.18 558.41L1412.39 390.58" stroke="hsl(228.5, 77.2%, 51.5%)" stroke-width="1.5"></path>
        <path d="M1399.18 558.41L1587.12 682.88" stroke="hsl(228.5, 77.2%, 51.5%)" stroke-width="1.5"></path>
        <path d="M1399.18 558.41L1300.76 341.01" stroke="hsl(228.5, 77.2%, 51.5%)" stroke-width="1.5"></path>
        <path d="M1399.18 558.41L1131.13 490.22" stroke="hsl(228.5, 77.2%, 51.5%)" stroke-width="1.5"></path>
        <path d="M1428.87 700.09L1428.87 700.09" stroke="hsl(228.5, 77.2%, 51.5%)" stroke-width="1.5"></path>
        <path d="M1561.74 -59.75L1561.74 -59.75" stroke="hsl(228.5, 77.2%, 51.5%)" stroke-width="1.5"></path>
        <path d="M1561.74 -59.75L1583.64 100.24" stroke="hsl(228.5, 77.2%, 51.5%)" stroke-width="1.5"></path>
        <path d="M1583.64 100.24L1583.64 100.24" stroke="hsl(228.5, 77.2%, 51.5%)" stroke-width="1.5"></path>
        <path d="M1583.64 100.24L1605.62 194.94" stroke="hsl(228.5, 77.2%, 51.5%)" stroke-width="1.5"></path>
        <path d="M1583.64 100.24L1409.09 234.2" stroke="hsl(228.5, 77.2%, 51.5%)" stroke-width="1.5"></path>
        <path d="M1583.64 100.24L1303.01 188.88" stroke="hsl(228.5, 77.2%, 51.5%)" stroke-width="1.5"></path>
        <path d="M1605.62 194.94L1605.62 194.94" stroke="hsl(228.5, 77.2%, 51.5%)" stroke-width="1.5"></path>
        <path d="M1605.62 194.94L1409.09 234.2" stroke="hsl(228.5, 77.2%, 51.5%)" stroke-width="1.5"></path>
        <path d="M1587.12 682.88L1587.12 682.88" stroke="hsl(228.5, 77.2%, 51.5%)" stroke-width="1.5"></path>
        <path d="M1587.12 682.88L1428.87 700.09" stroke="hsl(228.5, 77.2%, 51.5%)" stroke-width="1.5"></path>
        <path d="M1587.12 682.88L1611.51 347.55" stroke="hsl(228.5, 77.2%, 51.5%)" stroke-width="1.5"></path>
        <path d="M1587.12 682.88L1298.14 510.9" stroke="hsl(228.5, 77.2%, 51.5%)" stroke-width="1.5"></path>
        <path d="M1587.12 682.88L1412.39 390.58" stroke="hsl(228.5, 77.2%, 51.5%)" stroke-width="1.5"></path>
        <circle r="25" cx="-107.41" cy="658.02" fill="url(&quot;#SvgjsRadialGradient1001&quot;)"></circle>
        <circle r="25" cx="237.48" cy="493.95" fill="url(&quot;#SvgjsRadialGradient1001&quot;)"></circle>
        <circle r="25" cx="546.7" cy="507.46" fill="url(&quot;#SvgjsRadialGradient1001&quot;)"></circle>
        <circle r="25" cx="683.43" cy="492.21" fill="url(&quot;#SvgjsRadialGradient1001&quot;)"></circle>
        <circle r="25" cx="1148.17" cy="55.87" fill="url(&quot;#SvgjsRadialGradient1001&quot;)"></circle>
        <circle r="25" cx="1131.13" cy="490.22" fill="url(&quot;#SvgjsRadialGradient1001&quot;)"></circle>
        <circle r="25" cx="1260.72" cy="41.5" fill="url(&quot;#SvgjsRadialGradient1001&quot;)"></circle>
        <circle r="25" cx="1611.51" cy="347.55" fill="url(&quot;#SvgjsRadialGradient1001&quot;)"></circle>
        <circle r="5" cx="-80.85" cy="494.75" fill="#8b9ad9"></circle>
        <circle r="5" cx="41.49" cy="495.61" fill="#8b9ad9"></circle>
        <circle r="5" cx="52.52" cy="705.12" fill="#8b9ad9"></circle>
        <circle r="5" cx="240.17" cy="663.28" fill="#8b9ad9"></circle>
        <circle r="5" cx="343.23" cy="491.16" fill="#8b9ad9"></circle>
        <circle r="5" cx="358.83" cy="706.17" fill="#8b9ad9"></circle>
        <circle r="5" cx="500.94" cy="650.02" fill="#8b9ad9"></circle>
        <circle r="5" cx="652.49" cy="697.97" fill="#8b9ad9"></circle>
        <circle r="5" cx="860.64" cy="377.37" fill="#8b9ad9"></circle>
        <circle r="5" cx="799.45" cy="533.27" fill="#8b9ad9"></circle>
        <circle r="5" cx="802.2" cy="671.12" fill="#8b9ad9"></circle>
        <circle r="5" cx="1000.59" cy="259.89" fill="#8b9ad9"></circle>
        <circle r="5" cx="970" cy="351.27" fill="#8b9ad9"></circle>
        <circle r="5" cx="1004.51" cy="678.3" fill="#8b9ad9"></circle>
        <circle r="5" cx="1130.22" cy="236.88" fill="#8b9ad9"></circle>
        <circle r="5" cx="1099.77" cy="379.73" fill="#8b9ad9"></circle>
        <circle r="5" cx="1133.13" cy="649.6" fill="#8b9ad9"></circle>
        <circle r="5" cx="1275.9" cy="-83.61" fill="#8b9ad9"></circle>
        <circle r="5" cx="1303.01" cy="188.88" fill="#8b9ad9"></circle>
        <circle r="5" cx="1300.76" cy="341.01" fill="#8b9ad9"></circle>
        <circle r="5" cx="1298.14" cy="510.9" fill="#8b9ad9"></circle>
        <circle r="5" cx="1448.8" cy="68.38" fill="#8b9ad9"></circle>
        <circle r="5" cx="1409.09" cy="234.2" fill="#8b9ad9"></circle>
        <circle r="5" cx="1412.39" cy="390.58" fill="#8b9ad9"></circle>
        <circle r="5" cx="1399.18" cy="558.41" fill="#8b9ad9"></circle>
        <circle r="5" cx="1428.87" cy="700.09" fill="#8b9ad9"></circle>
        <circle r="5" cx="1561.74" cy="-59.75" fill="#8b9ad9"></circle>
        <circle r="5" cx="1583.64" cy="100.24" fill="#8b9ad9"></circle>
        <circle r="5" cx="1605.62" cy="194.94" fill="#8b9ad9"></circle>
        <circle r="5" cx="1587.12" cy="682.88" fill="#8b9ad9"></circle>
    </g>
    <defs>
        <mask id="SvgjsMask1000">
            <rect width="1440" height="560" fill="#ffffff"></rect>
        </mask>
        <radialGradient id="SvgjsRadialGradient1001">
            <stop stop-color="#ffffff" offset="0.1"></stop>
            <stop stop-color="#1735b3" offset="0.2"></stop>
            <stop stop-color="rgba(23, 53, 179, 0)" offset="1"></stop>
        </radialGradient>
    </defs>
</svg>