<svg xmlns="http://www.w3.org/2000/svg" version="1.1" xmlns:xlink="http://www.w3.org/1999/xlink" xmlns:svgjs="http://svgjs.dev/svgjs" width="1440" height="560" preserveAspectRatio="none" viewBox="0 0 1440 560">
    <g mask="url(&quot;#SvgjsMask1366&quot;)" fill="none">
        <path d="M -734.2179210976656,32 C -638.22,123.4 -446.22,485.2 -254.21792109766557,489 C -62.22,492.8 33.78,85.8 225.78207890233443,51 C 417.78,16.2 513.78,310.6 705.7820789023344,315 C 897.78,319.4 1038.94,51.8 1185.7820789023344,73 C 1332.63,94.2 1389.16,351.4 1440,421" stroke="rgba(20, 7, 140, 1)" stroke-width="2"></path>
        <path d="M -541.8780166245601,58 C -445.88,122.8 -253.88,364.8 -61.878016624560175,382 C 130.12,399.2 226.12,114.4 418.1219833754398,144 C 610.12,173.6 706.12,511.2 898.1219833754399,530 C 1090.12,548.8 1269.75,269.4 1378.1219833754399,238 C 1486.5,206.6 1427.62,346 1440,373" stroke="rgba(20, 7, 140, 1)" stroke-width="2"></path>
        <path d="M -47.041860523039475,138 C 48.96,201 240.96,427 432.9581394769605,453 C 624.96,479 720.96,255 912.9581394769605,268 C 1104.96,281 1200.96,551.6 1392.9581394769605,518 C 1584.96,484.4 1863.55,103.6 1872.9581394769605,100 C 1882.37,96.4 1526.59,420 1440,500" stroke="rgba(20, 7, 140, 1)" stroke-width="2"></path>
        <path d="M -241.287762178869,127 C -145.29,200.6 46.71,496.8 238.712237821131,495 C 430.71,493.2 526.71,121.4 718.712237821131,118 C 910.71,114.6 1006.71,458.8 1198.712237821131,478 C 1390.71,497.2 1630.45,248.2 1678.712237821131,214 C 1726.97,179.8 1487.74,288.4 1440,307" stroke="rgba(20, 7, 140, 1)" stroke-width="2"></path>
    </g>
    <defs>
        <mask id="SvgjsMask1366">
            <rect width="1440" height="560" fill="#ffffff"></rect>
        </mask>
    </defs>
</svg>